<?xml version="1.0" encoding="UTF-8"?>
<svg version="1.1" xmlns="http://www.w3.org/2000/svg" width="256" height="256">
<path d="M0 0 C1.99954746 -0.04254356 4.00041636 -0.04080783 6 0 C7 1 7 1 7.375 3.8125 C7.30330598 9.63166489 4.36641251 14.80634729 2 20 C1.2746731 21.62699474 0.55077225 23.2546258 -0.171875 24.8828125 C-0.69152832 26.05287842 -0.69152832 26.05287842 -1.22167969 27.24658203 C-1.47852539 27.82520996 -1.73537109 28.40383789 -2 29 C-1.3702124 28.35450195 -0.7404248 27.70900391 -0.09155273 27.04394531 C2.27109835 24.62986148 4.64058762 22.22291444 7.01489258 19.8203125 C8.03687916 18.78333227 9.05614597 17.7436637 10.07250977 16.70117188 C23.13494165 3.31169825 23.13494165 3.31169825 30.875 2.6875 C34 3 34 3 35 4 C36.08132586 13.80283936 33.64912753 22.68074779 31 32 C36.21037021 26.98542659 41.09979367 22.00521019 45.5625 16.3125 C49.86950446 10.90958515 54.75970632 6.12014684 61 3 C63.69013339 2.81295596 66.29686177 2.91418609 69 3 C70.84509161 4.84509161 70.21701591 7.71094455 70.25 10.1875 C70.22345167 16.69847719 69.18166094 22.53314596 67.66796875 28.84375 C66.8515433 32.7014796 66.76473965 36.07899417 67 40 C68.485 40.495 68.485 40.495 70 41 C70.3125 44.3125 70.3125 44.3125 70 48 C67.31847485 50.44491999 65.45153253 50.93678545 61.875 51.4375 C59 51 59 51 57.34375 49.30859375 C53.15740306 42.11635234 56.49335829 31.6589725 58.34375 24.12890625 C58.93707557 21.30001467 59.12899092 18.87542269 59 16 C50.50679766 22.91137383 43.34299583 31.07061611 36.25 39.375 C28.0047264 48.78130257 28.0047264 48.78130257 22.5625 49.375 C21.2940625 49.189375 21.2940625 49.189375 20 49 C16.6710486 42.34209721 20.14990627 33.65867069 22 27 C22.42925781 25.40865234 22.42925781 25.40865234 22.8671875 23.78515625 C23.56924475 21.18754442 24.28034984 18.59278215 25 16 C13.3579377 24.53364084 3.96660277 35.35570782 -5.43286133 46.23828125 C-8.94233183 50.18349688 -11.33214337 52.86549543 -16.875 53.3125 C-17.90625 53.209375 -18.9375 53.10625 -20 53 C-21.15118802 40.62472876 -14.23543583 28.70375248 -8.875 17.9375 C-8.23480705 16.63389045 -7.59548001 15.32985529 -6.95703125 14.02539062 C-4.65957191 9.33952538 -2.33702415 4.6662535 0 0 Z " fill="#000000" transform="translate(81,47)"/>
<path d="M0 0 C2.94684559 2.14670871 3.0080092 3.04071345 3.75 6.8125 C3.56020422 12.20442567 0.91075566 15.6750313 -2.0925293 20.00561523 C-5.6545872 25.22380765 -8.40258313 30.65019444 -11.0625 36.375 C-11.48176758 37.27226807 -11.90103516 38.16953613 -12.33300781 39.09399414 C-13.16404056 40.87858369 -13.99301538 42.66413316 -14.81982422 44.45068359 C-21.86117924 59.66082616 -28.55187214 73.49424983 -44.40625 81.1640625 C-50.75952067 83.21165275 -58.49771609 83.14559232 -64.5625 80.25 C-67.52249874 78.58870895 -69.87470886 76.65546139 -72 74 C-72.390625 70.984375 -72.390625 70.984375 -72.25 67.75 C-72.21390625 66.67234375 -72.1778125 65.5946875 -72.140625 64.484375 C-72.07101563 63.25460938 -72.07101563 63.25460938 -72 62 C-68.6174306 62.61432314 -66.6009631 63.88045404 -63.875 65.9375 C-58.56410833 69.54785986 -53.36186174 71.49621179 -46.87109375 70.7578125 C-39.72542761 68.7161936 -35.28084279 62.92046118 -31.67480469 56.72216797 C-28.63844222 51.22180264 -25.78234783 45.63253685 -23 40 C-27.343091 41.447697 -30.99215301 43.93946932 -34.89453125 46.30859375 C-39.83586173 48.9999096 -44.12069243 50.28917414 -49.75 50.3125 C-50.69359375 50.32925781 -51.6371875 50.34601563 -52.609375 50.36328125 C-53.39828125 50.24339844 -54.1871875 50.12351563 -55 50 C-57.73153797 45.90269304 -57.71885556 42.81021434 -57 38 C-54.28147318 30.43827248 -48.53567516 24.62950017 -43 19 C-42.38382813 18.3709375 -41.76765625 17.741875 -41.1328125 17.09375 C-31.03779643 7.56197517 -14.34071676 -2.64861824 0 0 Z M-18.1796875 11.5703125 C-23.22358098 14.12718925 -27.58437394 17.49269342 -32 21 C-32.73476562 21.56847656 -33.46953125 22.13695312 -34.2265625 22.72265625 C-39.42445918 26.96727072 -43.90755661 32.00380468 -47 38 C-46.67 38.99 -46.34 39.98 -46 41 C-31.20430798 38.20836 -18.68634481 28.07984396 -10 16 C-8.53867114 12.72017567 -8.53867114 12.72017567 -8 10 C-12.17680497 8.60773168 -14.22824436 9.89987735 -18.1796875 11.5703125 Z " fill="#000000" transform="translate(116,148)"/>
<path d="M0 0 C2.625 1.5625 2.625 1.5625 4 4 C5.16554332 10.47524065 2.34195146 15.61522187 -1 21 C-2.41796875 22.796875 -2.41796875 22.796875 -4 24 C-5.32 24 -6.64 24 -8 24 C-7.48041715 19.62065881 -6.94324258 15.31196609 -6 11 C-8.99076184 9.6215131 -8.99076184 9.6215131 -11.6875 11.25 C-20.09300559 17.34034152 -24.71718335 27.89901462 -29 37 C-23.06 37 -17.12 37 -11 37 C-12 43 -12 43 -13.58984375 44.30859375 C-16.87611761 45.25133358 -20.1749682 45.6868335 -23.5625 46.0625 C-28.85211779 46.6644833 -28.85211779 46.6644833 -34 48 C-35.36681281 50.0084561 -35.36681281 50.0084561 -36.5 52.5 C-36.9021875 53.3146875 -37.304375 54.129375 -37.71875 54.96875 C-39.38415555 58.9088558 -40.67609472 62.93492671 -42 67 C-43.17133328 70.48479947 -44.36443206 73.96181473 -45.5625 77.4375 C-45.86607422 78.33404297 -46.16964844 79.23058594 -46.48242188 80.15429688 C-46.77826172 81.00958984 -47.07410156 81.86488281 -47.37890625 82.74609375 C-47.6426001 83.51622803 -47.90629395 84.2863623 -48.17797852 85.07983398 C-49 87 -49 87 -51 89 C-54.625 89.125 -54.625 89.125 -58 89 C-59.43917326 79.40268135 -55.17950097 72.1127378 -50.9375 63.875 C-49.59020631 61.25822082 -48.27016146 58.63011135 -46.96484375 55.9921875 C-46.3730835 54.84089355 -45.78132324 53.68959961 -45.17163086 52.50341797 C-44.05188334 49.15514188 -43.93801794 48.02945777 -44.44750977 44.71923828 C-44.62983154 43.49188965 -44.81215332 42.26454102 -45 41 C-42.875 38.5 -42.875 38.5 -40 36 C-37.38996706 32.44721269 -35.30030216 28.54882809 -33.1875 24.6875 C-26.1505316 11.86155014 -16.9088133 -3.21783521 0 0 Z " fill="#000000" transform="translate(199,116)"/>
<path d="M0 0 C2.87515405 2.87515405 2.99024854 4.89760964 3.375 8.9375 C3.18971228 13.83836009 1.47442019 17.52557981 -2 21 C-4.625 20.625 -4.625 20.625 -7 20 C-7 17.36 -7 14.72 -7 12 C-7.66 11.67 -8.32 11.34 -9 11 C-20.04760626 17.32435431 -31.69666771 28.49066567 -35.375 41.0625 C-35.58125 42.031875 -35.7875 43.00125 -36 44 C-31.74202238 46.60209744 -28.81579977 45.86559727 -24.08984375 44.9140625 C-19.61902957 43.59147019 -15.69172474 41.50351657 -11.62890625 39.2421875 C-9 38 -9 38 -5 38 C-4.81785595 40.97501945 -4.79348489 42.33841732 -6 45 C-15.18169922 53.12032849 -26.22840907 56.48042778 -38.25 56.3359375 C-41 56 -41 56 -44 54 C-46.17912716 47.46261852 -45.70670228 39.35591697 -43 33 C-35.03627914 19.28973057 -17.92098633 -2.73370978 0 0 Z " fill="#000000" transform="translate(203,46)"/>
<path d="M0 0 C1 1 1 1 1.38671875 3.48828125 C0.83270465 8.519177 -1.55108645 11.94104363 -4.1875 16.1875 C-5.20649154 17.89122016 -6.22215113 19.59693782 -7.234375 21.3046875 C-7.71841797 22.11905273 -8.20246094 22.93341797 -8.70117188 23.77246094 C-13.24049072 31.5575634 -15.84729932 39.4008154 -18.0078125 48.12890625 C-19 51 -19 51 -22 53 C-25.1875 53.125 -25.1875 53.125 -28 53 C-29.48001535 43.22720023 -25.16423584 35.49052331 -21 27 C-20.27683594 25.50460693 -20.27683594 25.50460693 -19.5390625 23.97900391 C-17.95464357 20.70916918 -16.3560428 17.44676492 -14.75 14.1875 C-14.23083008 13.13095215 -13.71166016 12.0744043 -13.17675781 10.98583984 C-12.43184082 9.49818115 -12.43184082 9.49818115 -11.671875 7.98046875 C-11.2294043 7.09254639 -10.78693359 6.20462402 -10.33105469 5.28979492 C-7.50176309 0.42260382 -5.69000069 -0.49478267 0 0 Z " fill="#000000" transform="translate(143,150)"/>
<path d="M0 0 C0.66 0.66 1.32 1.32 2 2 C1.68919427 6.55848402 0.40784979 10.13024142 -2 14 C-4.375 15.9375 -4.375 15.9375 -7 17 C-9.8125 16.6875 -9.8125 16.6875 -12 16 C-12.3459973 10.34871077 -11.68154755 6.88424732 -9 2 C-6.13411508 -0.19717844 -3.55275276 -0.37397398 0 0 Z " fill="#000000" transform="translate(160,121)"/>
</svg>
